<svg width="30" height="30" viewBox="0 0 30 30" fill="none" xmlns="http://www.w3.org/2000/svg">
<path d="M3.00439 8.826L14.9999 14.823L26.9954 8.826C26.951 8.06167 26.616 7.34323 26.0591 6.81784C25.5022 6.29245 24.7655 5.99986 23.9999 6H5.99989C5.23427 5.99986 4.49757 6.29245 3.94066 6.81784C3.38376 7.34323 3.0488 8.06167 3.00439 8.826V8.826Z" fill="#93C5FD"/>
<path d="M27 12.177L15 18.177L3 12.177V21C3 21.7957 3.31607 22.5587 3.87868 23.1213C4.44129 23.6839 5.20435 24 6 24H24C24.7956 24 25.5587 23.6839 26.1213 23.1213C26.6839 22.5587 27 21.7957 27 21V12.177Z" fill="#93C5FD"/>
</svg>
