<svg width="30" height="30" viewBox="0 0 30 30" fill="none" xmlns="http://www.w3.org/2000/svg">
<path fill-rule="evenodd" clip-rule="evenodd" d="M7.57503 6.07499C9.54426 4.10575 12.2151 2.99945 15 2.99945C17.7849 2.99945 20.4558 4.10575 22.425 6.07499C24.3943 8.04422 25.5006 10.7151 25.5006 13.5C25.5006 16.2849 24.3943 18.9558 22.425 20.925L15 28.35L7.57503 20.925C6.5999 19.95 5.82638 18.7924 5.29863 17.5184C4.77089 16.2444 4.49927 14.879 4.49927 13.5C4.49927 12.121 4.77089 10.7556 5.29863 9.48156C5.82638 8.20757 6.5999 7.05002 7.57503 6.07499V6.07499ZM15 16.5C15.7957 16.5 16.5587 16.1839 17.1213 15.6213C17.684 15.0587 18 14.2956 18 13.5C18 12.7043 17.684 11.9413 17.1213 11.3787C16.5587 10.8161 15.7957 10.5 15 10.5C14.2044 10.5 13.4413 10.8161 12.8787 11.3787C12.3161 11.9413 12 12.7043 12 13.5C12 14.2956 12.3161 15.0587 12.8787 15.6213C13.4413 16.1839 14.2044 16.5 15 16.5Z" fill="#F87171"/>
</svg>
