<svg width="30" height="30" viewBox="0 0 30 30" fill="none" xmlns="http://www.w3.org/2000/svg">
<path fill-rule="evenodd" clip-rule="evenodd" d="M10.5 3C9.70435 3 8.94129 3.31607 8.37868 3.87868C7.81607 4.44129 7.5 5.20435 7.5 6V24C7.5 24.7956 7.81607 25.5587 8.37868 26.1213C8.94129 26.6839 9.70435 27 10.5 27H19.5C20.2956 27 21.0587 26.6839 21.6213 26.1213C22.1839 25.5587 22.5 24.7956 22.5 24V6C22.5 5.20435 22.1839 4.44129 21.6213 3.87868C21.0587 3.31607 20.2956 3 19.5 3H10.5ZM15 24C15.3978 24 15.7794 23.842 16.0607 23.5607C16.342 23.2794 16.5 22.8978 16.5 22.5C16.5 22.1022 16.342 21.7206 16.0607 21.4393C15.7794 21.158 15.3978 21 15 21C14.6022 21 14.2206 21.158 13.9393 21.4393C13.658 21.7206 13.5 22.1022 13.5 22.5C13.5 22.8978 13.658 23.2794 13.9393 23.5607C14.2206 23.842 14.6022 24 15 24V24Z" fill="#7E22CE"/>
</svg>
